<svg width="304" height="283" viewBox="0 0 304 283" fill="none" 
    xmlns="http://www.w3.org/2000/svg">
    <path d="M128.605 0L258.605 203.25H0L128.605 0Z" transform="translate(44.8952 282) scale(1 -1)" fill="#FB5A00"/>
    <path d="M128.605 0L258.605 203.25H0L128.605 0Z" transform="translate(44.8952 282) scale(1 -1)" fill="url(#paint0_linear)"/>
    <path d="M257 0H0L129 202L257 0Z" transform="translate(46 80)" stroke="black"/>
    <path d="M124 0L251 168H0L124 0Z" transform="translate(0 1)" fill="#8FFF1E"/>
    <path d="M124 0L251 168H0L124 0Z" transform="translate(0 1)" fill="url(#paint1_linear)"/>
    <path d="M123.44 0L0 168H250L183.629 79.5266L123.44 0Z" transform="translate(1 1)" stroke="black"/>
    <path d="M111 168L0 0H215L111 168Z" transform="translate(66 91)" stroke="black"/>
    <defs>
        <linearGradient id="paint0_linear" x2="1" gradientUnits="userSpaceOnUse" gradientTransform="translate(277.105) scale(297 271) rotate(90)">
            <stop stop-color="#FBDC3E"/>
            <stop offset="0.512915" stop-color="#F95A00"/>
            <stop offset="0.546961" stop-color="#F64A00"/>
            <stop offset="0.712707" stop-color="#7600AE"/>
            <stop offset="1" stop-color="#9CF32E"/>
        </linearGradient>
        <linearGradient id="paint1_linear" x2="1" gradientUnits="userSpaceOnUse" gradientTransform="translate(273 -1) scale(294 229) rotate(90)">
            <stop stop-color="#CDF699"/>
            <stop offset="0.441048" stop-color="#9CF32E"/>
            <stop offset="0.899563" stop-color="#5A10D1"/>
        </linearGradient>
    </defs>
</svg>
